<?xml version="1.0" standalone="no"?><!DOCTYPE svg PUBLIC "-//W3C//DTD SVG 1.1//EN" "http://www.w3.org/Graphics/SVG/1.1/DTD/svg11.dtd"><svg t="1612929342380" class="icon" viewBox="0 0 1024 1024" version="1.1" xmlns="http://www.w3.org/2000/svg" p-id="2002" xmlns:xlink="http://www.w3.org/1999/xlink" width="200" height="200"><defs><style type="text/css"></style></defs><path d="M576 646.4L838.4 384l-64-64L512 576.00000001l-262.4-262.40000001-64 64L448 646.4l64 64 64-64z" fill="#55BBFF" p-id="2003"></path><path d="M512 710.4l-64-64-262.4-262.4 64-64L512 576.00000001l262.4-262.40000001 64 64L576 646.4l-64 64m0 89.6c25.6 0 51.2-12.8 64-25.6l64-64L908.8 448c19.2-19.2 25.6-38.4 25.6-64s-12.8-51.2-25.6-64l-64-63.99999999c-19.2-19.2-44.8-25.6-64-25.60000001-25.6 0-44.8 6.4-64 25.6L512 447.99999999l-198.4-198.39999999c-19.2-19.2-44.8-25.6-64-25.6s-44.8 6.4-64 25.6l-64 64c-19.2 19.2-25.6 38.4-25.6 64s12.8 51.2 25.6 64L384 704 448 768c12.8 25.6 38.4 32 64 32z" p-id="2004"></path></svg>