<?xml version="1.0" standalone="no"?><!DOCTYPE svg PUBLIC "-//W3C//DTD SVG 1.1//EN" "http://www.w3.org/Graphics/SVG/1.1/DTD/svg11.dtd"><svg t="1612951635804" class="icon" viewBox="0 0 1024 1024" version="1.1" xmlns="http://www.w3.org/2000/svg" p-id="1321" xmlns:xlink="http://www.w3.org/1999/xlink" width="200" height="200"><defs><style type="text/css"></style></defs><path d="M512 134.864c282.768 0 512 303.808 512 384 0 80.256-229.232 384-512 384-282.768 0-512-297.696-512-384 0-86.24 229.232-384 512-384z m0 144a240 240 0 0 0 0 480c132.544 0 240-107.456 240-240 0-132.56-107.456-240-240-240z m-2.88 128.032a112 112 0 1 1 5.76 223.92 112 112 0 0 1-5.76-223.92z" fill="#0078FF" p-id="1322"></path></svg>